<?xml version="1.0" encoding="utf-8"?>
<!-- Generator: Adobe Illustrator 24.0.2, SVG Export Plug-In . SVG Version: 6.00 Build 0)  -->
<svg version="1.1" id="Layer_1" xmlns="http://www.w3.org/2000/svg" xmlns:xlink="http://www.w3.org/1999/xlink" x="0px" y="0px"
	 viewBox="0 0 142.23 138.78" style="enable-background:new 0 0 142.23 138.78;" xml:space="preserve">
<style type="text/css">
	.st0{fill:#FF5A00;}
	.st1{fill:#f6f6f6;}
</style>
<g>
	<path class="st0" d="M75.46,128.78c-0.79,0-1.58-0.09-2.36-0.28l-6.2-1.5c-4.15-1.01-7.21-4.54-7.6-8.8
		c-0.11-1.22,0-2.41,0.31-3.54l-8.77-27.42l-1.5-4.8l-1.75-5.46L25.4,71.11c-0.47-0.12-0.93-0.28-1.37-0.47
		c-1.37-0.58-4.81-2.16-7.16-4.14c-1.41-1.2-8.38-7.54-6.56-15.03c1.82-7.49,10.92-9.93,12.73-10.35c1.46-0.34,3.2-0.5,5.29-0.5
		c1.54,0,2.82,0.09,2.96,0.1c0.48,0.04,0.96,0.11,1.43,0.21l22.41,4.97l4.11-4.11l3.44-3.48l20.41-20.4
		c0.24-1.15,0.69-2.26,1.35-3.29C86.3,11.7,89.5,10,92.86,10c0.78,0,1.57,0.09,2.36,0.28l6.2,1.5c3.07,0.74,5.6,2.89,6.84,5.79
		c1.24,2.9,1.04,6.22-0.55,8.94L91.44,54.57l1.46,0.38c3.63,0.96,7.41,2.32,10.44,3.52l3.32-2.91c0.25-0.77,0.6-1.52,1.04-2.24
		c1.86-2.96,5.08-4.69,8.47-4.69c0.78,0,1.57,0.09,2.36,0.28l6.06,1.47c3.05,0.74,5.57,2.87,6.82,5.75s1.07,6.18-0.48,8.91
		l-4.29,7.55c1.28,2.2,1.68,4.84,1.06,7.37c-0.61,2.53-2.18,4.68-4.32,6.06l0.35,8.68c0.13,3.14-1.23,6.15-3.65,8.14
		c-1.81,1.48-4.05,2.26-6.34,2.26c-0.79,0-1.58-0.09-2.36-0.28l-6.06-1.47c-4.18-1.02-7.25-4.59-7.61-8.88
		c-0.07-0.84-0.03-1.67,0.1-2.47l-1.61-4.1c-3.24-0.32-7.22-0.84-10.89-1.66l-1.47-0.33l1.61,32.38c0.16,3.15-1.18,6.19-3.61,8.2
		C80.02,127.98,77.76,128.78,75.46,128.78z"/>
	<path class="st1" d="M92.86,20l6.2,1.5L76.21,60.89c0,0,7.15,1.88,14.14,3.72c6.99,1.84,14.86,5.5,14.86,5.5l11.86-10.4l-0.9-1.09
		l6.06,1.47l-8.15,14.36c2.52,1.63,3.91,3.14,3.91,3.14s-1.92,0.7-4.91,1l0.66,16.5l-6.06-1.47l1.3-0.56l-5.77-14.68
		c0,0-8.67-0.35-15.73-1.92c-7.06-1.57-14.28-3.17-14.28-3.17l2.26,45.48l-6.2-1.5l1.47-0.66L60.36,84.18l-1.48-4.73l-3.44-10.76
		l-27.5-7.26c0,0-3.17-1.35-4.63-2.58c-1.45-1.23-3.54-4.07-3.3-5.03c0.23-0.96,3.39-2.53,5.24-2.96c0.85-0.2,2.03-0.25,3.07-0.25
		c1.22,0,2.23,0.07,2.23,0.07l27.76,6.16l7.98-7.98l3.48-3.53l24.08-24.07L92.86,20 M92.86,0c-6.72,0-13.13,3.4-16.86,9.24
		c-0.68,1.06-1.24,2.17-1.7,3.31L55.65,31.19c-0.03,0.03-0.07,0.07-0.1,0.1l-3.43,3.48l-0.18,0.18l-17.05-3.78
		c-0.95-0.21-1.91-0.35-2.87-0.42c-0.41-0.03-1.88-0.13-3.68-0.13c-2.86,0-5.33,0.25-7.54,0.75c-2.81,0.64-17,4.53-20.2,17.74
		c-3.2,13.2,7.62,23.16,9.82,25.02c3.1,2.62,6.98,4.55,9.69,5.71c0.89,0.38,1.81,0.7,2.75,0.94l16.89,4.46l0.08,0.24l1.46,4.67
		c0.01,0.04,0.03,0.09,0.04,0.13l8.03,25.11c-0.12,1.22-0.12,2.47,0,3.73c0.79,8.51,6.89,15.58,15.2,17.59l6.2,1.5
		c1.56,0.38,3.14,0.56,4.72,0.56c4.61,0,9.13-1.59,12.75-4.59c4.86-4.02,7.54-10.1,7.23-16.4L95,109.1
		c2.27,1.86,4.97,3.24,7.96,3.96l6.06,1.47c1.56,0.38,3.14,0.56,4.72,0.56c4.57,0,9.06-1.57,12.68-4.53
		c4.85-3.98,7.56-10,7.31-16.27l-0.17-4.14c1.82-2.26,3.16-4.92,3.86-7.83c0.71-2.91,0.74-5.89,0.16-8.74l2.05-3.61
		c3.1-5.46,3.46-12.05,0.96-17.81c-2.49-5.76-7.54-10.02-13.64-11.5l-6.06-1.47c-1.57-0.38-3.15-0.57-4.72-0.57
		c-1.41,0-2.81,0.15-4.17,0.44l4.37-7.53c3.17-5.46,3.57-12.09,1.09-17.89c-2.48-5.8-7.55-10.1-13.68-11.58l-6.2-1.5
		C96.01,0.18,94.43,0,92.86,0L92.86,0z"/>
</g>
</svg>
